<svg version="1.1" xmlns="http://www.w3.org/2000/svg" xmlns:xlink="http://www.w3.org/1999/xlink" width="78.44018" height="77.40268" viewBox="0,0,78.44018,77.40268"><defs><radialGradient cx="366.01838" cy="218.09888" r="64.8321" gradientUnits="userSpaceOnUse" id="color-1"><stop offset="0" stop-color="#ffff99"/><stop offset="1" stop-color="#ffff99" stop-opacity="0"/></radialGradient><radialGradient cx="374.80588" cy="226.87718" r="44.8933" gradientUnits="userSpaceOnUse" id="color-2"><stop offset="0" stop-color="#ff9400" stop-opacity="0"/><stop offset="1" stop-color="#ff9400"/></radialGradient></defs><g transform="translate(-337.7799,-183.29866)"><g data-paper-data="{&quot;isPaintingLayer&quot;:true}" fill-rule="nonzero" stroke-linejoin="miter" stroke-miterlimit="10" stroke-dasharray="" stroke-dashoffset="0" style="mix-blend-mode: normal"><g stroke="none" stroke-width="1.03389" stroke-linecap="round"><path d="M377.18738,183.47898c7.7273,-1.8568 11.7129,11.1008 17.0591,17.0591c7.5815,6.8836 20.0646,11.4389 21.7115,21.4531c1.5974,9.7495 -4.3443,20.2527 -11.3634,27.2252c-7.018,6.9715 -17.6256,12.6279 -27.4072,11.2869c-6.6654,-0.9129 -5.2046,-13.7289 -11.3727,-16.0252c-5.1146,-2.35 -11.5526,8.297 -16.0345,4.7383c-7.6818,-6.1144 -14.0825,-17.791 -11.3634,-27.2252c2.6353,-9.1323 17.8159,-8.1119 24.8132,-14.7329c6.3108,-6.5982 5.4775,-21.755 13.9574,-23.7793z" fill="url(#color-1)"/><path d="M372.46218,205.69138c4.7414,0.4518 4.4405,-12.0334 8.2711,-10.3388c10.8754,4.7403 24.1773,13.6906 24.8132,24.8132c0.6183,12.1429 -10.6521,22.9253 -20.1607,30.4995c-3.4842,2.7564 -8.1574,-3.9112 -12.4066,-3.1016c-6.9467,0.6348 -14.1394,11.0356 -19.6438,7.2372c-6.6086,-4.5853 -5.9428,-16.8286 -4.6525,-25.3302c0.8685,-4.2524 10.8475,-3.7364 10.3388,-8.2711c-1.191,-10.6304 -17.484,-24.2021 -13.9574,-28.9487c3.3767,-4.5129 17.2865,12.449 27.3979,13.4405z" fill="url(#color-2)"/></g><path d="M386.82154,237.44986c0,0 -24.24642,-12.61192 -18.82452,-22.40116c6.04932,-10.92204 29.74272,14.62804 29.74272,14.62804z" fill="#ffe270" stroke="#fed35a" stroke-width="2" stroke-linecap="butt"/></g></g></svg>